# xmcd
#
# Track frame offsets:
#	150
#	14367
#	28397
#	40890
#	57875
#	72170
#	89055
#	106542
#	124575
#	137982
#	150467
#	164172
#	177310
#	189290
#	203482
#	216150
#
# Disc length: 3123 seconds
#
# Revision: 0
# Processed by: cddbd v1.5.1PL0 Copyright (c) Steve Scherf et al.
# Submitted via: dBpowerAMP V4.0
#
DISCID=df0c3110
DTITLE=Delta Music Gmbh - SchlagerParty Bestseller
DYEAR=2003
DGENRE=Country
TTITLE0=Serverine-Jetzt geht die Party richtig los
TTITLE1=Costa Cordales-Anita
TTITLE2=Manuela-Schuld war nur der Bossa Nova
TTITLE3=Chris Roberts-Du kannst nicht immer 17 sein
TTITLE4=Christiane Berger-Deine Augen...
TTITLE5=Henry Valentino- Im Wagen vor mir
TTITLE6=Nina&Mike-Lola
TTITLE7=Jürgen Marcus-Ein Festival der Liebe
TTITLE8=Alf Ventura-Oh isabella
TTITLE9=Peter Beil-Corinna, Corinna
TTITLE10=West R.Welle-Willenlos
TTITLE11=Manfred Morgan-Dich hat mich der Himmel geschickt
TTITLE12=Die Flippers-Weine nicht, kleine Eva
TTITLE13=Erik Silvester-Zucker im Kaffee
TTITLE14=Bata Illic-Ich möchte der Knopf an deiner Bluse sein
TTITLE15=Partygeier VS. Roland W. Monja 3000
EXTD=SchlagerParty Bestseller
EXTT0=
EXTT1=
EXTT2=
EXTT3=
EXTT4=
EXTT5=
EXTT6=
EXTT7=
EXTT8=
EXTT9=
EXTT10=
EXTT11=
EXTT12=
EXTT13=
EXTT14=
EXTT15=
PLAYORDER=
